<svg width="33" height="33" viewBox="0 0 33 33" fill="none" xmlns="http://www.w3.org/2000/svg">
<g clip-path="url(#clip0_595:677)">
<path d="M32.9605 9.5985C32.8842 7.8638 32.6042 6.67121 32.2031 5.63782C31.7894 4.5409 31.1529 3.55883 30.3189 2.74243C29.5041 1.91332 28.5175 1.26907 27.4354 0.860995C26.3981 0.459147 25.214 0.178626 23.4827 0.102143C21.7385 0.019183 21.1848 0 16.7609 0C12.337 0 11.7833 0.019183 10.0455 0.0956661C8.31425 0.172149 7.12399 0.452919 6.09287 0.854517C4.99784 1.26907 4.01769 1.90684 3.20289 2.74243C2.3754 3.55883 1.73266 4.54738 1.32513 5.63159C0.92407 6.67121 0.644098 7.85732 0.567764 9.59202C0.484966 11.3397 0.46582 11.8945 0.46582 16.327C0.46582 20.7595 0.484966 21.3144 0.561299 23.0555C0.637633 24.7902 0.917854 25.9828 1.31892 27.0162C1.73266 28.1131 2.3754 29.0952 3.20289 29.9116C4.01769 30.7407 5.00431 31.3849 6.0864 31.793C7.12399 32.1949 8.30778 32.4754 10.0393 32.5519C11.7769 32.6286 12.3308 32.6475 16.7547 32.6475C21.1786 32.6475 21.7323 32.6286 23.4701 32.5519C25.2014 32.4754 26.3916 32.1949 27.4227 31.793C29.6125 30.9447 31.3438 29.21 32.1905 27.0162C32.5913 25.9766 32.8715 24.7902 32.9478 23.0555C33.0242 21.3144 33.0433 20.7595 33.0433 16.327C33.0433 11.8945 33.0368 11.3397 32.9605 9.5985ZM30.0263 22.928C29.9562 24.5224 29.6889 25.3834 29.4661 25.9574C28.9186 27.3797 27.792 28.5085 26.3725 29.0571C25.7996 29.2803 24.9341 29.5481 23.349 29.6181C21.6303 29.6948 21.1149 29.7138 16.7674 29.7138C12.4198 29.7138 11.8979 29.6948 10.1855 29.6181C8.59422 29.5481 7.73491 29.2803 7.16203 29.0571C6.45564 28.7955 5.81265 28.3809 5.29074 27.8388C4.7497 27.3094 4.33595 26.6716 4.07488 25.9639C3.85209 25.3899 3.5848 24.5224 3.51493 22.9344C3.43835 21.2125 3.41945 20.6958 3.41945 16.3397C3.41945 11.9837 3.43835 11.4607 3.51493 9.74523C3.5848 8.1508 3.85209 7.2898 4.07488 6.71581C4.33595 6.00778 4.7497 5.36378 5.29721 4.8406C5.82533 4.2985 6.46185 3.88394 7.1685 3.62261C7.74137 3.39938 8.60715 3.13157 10.192 3.06131C11.9106 2.98483 12.4263 2.96565 16.7736 2.96565C21.1276 2.96565 21.643 2.98483 23.3554 3.06131C24.9467 3.13157 25.8061 3.39938 26.3789 3.62261C27.0853 3.88394 27.7283 4.2985 28.2502 4.8406C28.7913 5.37001 29.205 6.00778 29.4661 6.71581C29.6889 7.2898 29.9562 8.15703 30.0263 9.74523C30.1026 11.4672 30.1218 11.9837 30.1218 16.3397C30.1218 20.6958 30.1026 21.206 30.0263 22.928Z" fill="#777C82"/>
<path d="M16.7629 7.94141C12.1419 7.94141 8.39258 11.6978 8.39258 16.3281C8.39258 20.9585 12.1419 24.7149 16.7629 24.7149C21.3842 24.7149 25.1332 20.9585 25.1332 16.3281C25.1332 11.6978 21.3842 7.94141 16.7629 7.94141ZM16.7629 21.7684C13.765 21.7684 11.3333 19.3321 11.3333 16.3281C11.3333 13.3241 13.765 10.8879 16.7629 10.8879C19.761 10.8879 22.1925 13.3241 22.1925 16.3281C22.1925 19.3321 19.761 21.7684 16.7629 21.7684Z" fill="#777C82"/>
<path d="M27.4182 7.60929C27.4182 8.69051 26.5432 9.5672 25.4639 9.5672C24.3847 9.5672 23.5098 8.69051 23.5098 7.60929C23.5098 6.52781 24.3847 5.65137 25.4639 5.65137C26.5432 5.65137 27.4182 6.52781 27.4182 7.60929Z" fill="#777C82"/>
</g>
<defs>
<clipPath id="clip0_595:677">
<rect width="32.5838" height="32.6476" fill="white" transform="translate(0.416016)"/>
</clipPath>
</defs>
</svg>
